<?xml version="1.0" standalone="no"?>
<!DOCTYPE svg PUBLIC "-//W3C//DTD SVG 1.1//EN" "http://www.w3.org/Graphics/SVG/1.1/DTD/svg11.dtd">
<svg class="icon" width="200px" height="200.00px" viewBox="0 0 1024 1024" version="1.1" xmlns="http://www.w3.org/2000/svg">
	<path fill="#1b6cd5" d="M259.497149 496.384347l-0.008187 0.01535a31.67542 31.67542 0 0 0-1.319041 2.706645l-0.051166 0.112564c-0.183172 0.429789-0.354064 0.865717-0.519839 1.305738-0.019443 0.053212-0.042979 0.104377-0.062422 0.157589-0.154519 0.418532-0.295735 0.842181-0.432858 1.2689-0.024559 0.076748-0.053212 0.152473-0.077772 0.230244-0.128937 0.413416-0.245593 0.831948-0.35918 1.252527-0.024559 0.092098-0.054235 0.183172-0.077771 0.275269-0.103354 0.398066-0.192382 0.801249-0.280386 1.205455-0.025583 0.118704-0.057305 0.23536-0.081865 0.354064-0.078795 0.381693-0.143263 0.769526-0.207731 1.156336-0.024559 0.143263-0.054235 0.285502-0.076748 0.428765-0.058328 0.3776-0.101307 0.759293-0.146333 1.140987-0.01842 0.156566-0.042979 0.311085-0.059351 0.46765-0.039909 0.394996-0.065492 0.793062-0.091075 1.192152-0.00921 0.147356-0.025583 0.292666-0.033769 0.440022a32.772404 32.772404 0 0 0 0 3.305279c0.007163 0.147356 0.023536 0.292666 0.033769 0.440022 0.025583 0.399089 0.051165 0.797156 0.091075 1.192151 0.016373 0.157589 0.040932 0.311085 0.059351 0.467651 0.045025 0.381693 0.088004 0.763386 0.146333 1.140987 0.022513 0.144286 0.052189 0.285502 0.076748 0.428765 0.064468 0.38681 0.12996 0.773619 0.207731 1.156336 0.024559 0.118704 0.056282 0.23536 0.081865 0.354064 0.088004 0.404206 0.178055 0.807389 0.280386 1.205455 0.023536 0.093121 0.053212 0.183172 0.077771 0.275269 0.112564 0.420579 0.229221 0.839111 0.35918 1.252527 0.024559 0.077771 0.053212 0.152473 0.077772 0.230244 0.137123 0.426719 0.278339 0.850367 0.432858 1.268899 0.019443 0.053212 0.041956 0.104377 0.062422 0.157589 0.164752 0.438998 0.335644 0.87595 0.519839 1.305739l0.051166 0.112564a31.843242 31.843242 0 0 0 0.62831 1.370207c0.220011 0.451278 0.450255 0.89744 0.690731 1.336438l0.008187 0.015349a32.075533 32.075533 0 0 0 5.578042 7.384178l-0.022513 0.022513 383.934253 351.620289c5.78782 5.791913 13.785981 9.374508 22.621207 9.374508 17.662265 0 31.980365-14.3181 31.980365-31.980365 0-8.834202-3.582595-16.832364-9.373485-22.620184L334.406233 511.738034l359.807762-329.156672c5.79089-5.78782 9.373485-13.784958 9.373485-22.620184 0-17.662265-14.3181-31.980365-31.980366-31.980365-8.835226 0-16.833387 3.582595-22.621206 9.374508l-383.934253 351.62029 0.022513 0.022512a32.133861 32.133861 0 0 0-5.577019 7.386224z" />
</svg>
