<?xml version="1.0" standalone="no"?><!DOCTYPE svg PUBLIC "-//W3C//DTD SVG 1.1//EN" "http://www.w3.org/Graphics/SVG/1.1/DTD/svg11.dtd"><svg t="1621671040439" class="icon" viewBox="0 0 1024 1024" version="1.1" xmlns="http://www.w3.org/2000/svg" p-id="7075" width="128" height="128" xmlns:xlink="http://www.w3.org/1999/xlink"><defs><style type="text/css"></style></defs><path d="M667.358169 282.96924h-137.371572l-0.298356-7.672008V226.96358h72.287368a13.937482 13.937482 0 0 0 13.852237 13.681748c7.586764 0 13.639126-6.094984 13.852237-13.681748h4.13436c3.665515 0 6.649074-2.983559 6.649074-6.649074v-3.665515a6.649074 6.649074 0 0 0-6.649074-6.649074h-104.168824V144.319001a11.934235 11.934235 0 0 0-5.839251-10.058855 11.508012 11.508012 0 0 0-6.137606-1.960625 11.934235 11.934235 0 0 0-6.990052 2.514714 11.848991 11.848991 0 0 0-5.029428 9.462144v65.680915h-115.506348a6.649074 6.649074 0 0 0-6.649073 6.649074v3.665515c0 3.665515 2.983559 6.649074 6.649073 6.649074H396.919875a13.937482 13.937482 0 0 0 13.852237 13.681749c7.586764 0 13.639126-6.094984 13.852238-13.681749h80.98231v26.255318l-1.278668 29.792965H356.641831a6.649074 6.649074 0 0 0-6.649073 6.649074v3.665515c0 3.665515 2.983559 6.649074 6.649073 6.649074h11.891613a13.980104 13.980104 0 0 0 13.89486 13.724371c7.586764 0 13.639126-6.094984 13.852237-13.681749h107.408117l-2.216358 51.999168H390.142934a6.649074 6.649074 0 0 0-6.649073 6.649074V362.289282c0 3.665515 2.983559 6.649074 6.649073 6.649074h10.911301a13.980104 13.980104 0 0 0 27.960208 0h71.690656l-22.078335 521.653944h76.506972l-21.566868-521.611322h64.402248a13.980104 13.980104 0 0 0 27.960208 0h7.885119c3.665515 0 6.649074-2.983559 6.649074-6.649074v-3.665515a6.649074 6.649074 0 0 0-6.649074-6.649074h-101.014776l-2.173736-51.999167h100.204953a13.937482 13.937482 0 0 0 13.852238 13.681748c7.586764 0 13.639126-6.094984 13.852237-13.681748h8.737565c3.665515 0 6.649074-2.983559 6.649074-6.649074v-3.708137a6.563829 6.563829 0 0 0-6.563829-6.691697z" fill="#40E0D0" p-id="7076"></path></svg>